/* XPM */
static char * bullet_xpm[] = {
"16 16 3 1",
" 	c None",
".	c None",
"+	c #0f56d9",

"................",
"................",
"................",
"................",
"....++++++++....",
"....++++++++....",
"....++....++....",
"....++....++....",
"....++....++....",
"....++....++....",
"....++++++++....",
"....++++++++....",
"................",
"................",
"................",
"................",

